# xmcd
#
# Track frame offsets: 
#        300
#        12600
#        32550
#        50775
#        67350
#        84000
#        101400
#        132075
#        157125
#        174225
#        195750
#        218550
#        240150
#        260850
#        286875
#        309525
#
# Disc length: 4431 seconds
#
# Revision: 0
# Processed by: cddbd v1.5.2PL0 Copyright (c) Steve Scherf et al.
# Submitted via: ExactAudioCopy v0.99pb3
#
DISCID=d9114b10
DTITLE=Песняры - Избранное
DYEAR=1995
DGENRE=Folk/Pop
TTITLE0=Белая Русь Ты Моя
TTITLE1=Алеся (Олеся)
TTITLE2=За Полчаса До Весны
TTITLE3=Вологда
TTITLE4=Ой, Рано На Ивана
TTITLE5=Каханне (Скажи Мне, Ганулька)
TTITLE6=Александрына (Александрина)
TTITLE7=А у Полі Вярба (А В Поле Верба)
TTITLE8=Касіу Ясь Канюшыну (Косил Ясь Клевер)
TTITLE9=Ты Мне Вясною Прыснілася (Ты Мне Весною Приснилась)
TTITLE10=Завушніцы (Серёжки)
TTITLE11=Сонет №68
TTITLE12=Я Всё Тот Же
TTITLE13=Зачарованая Моя
TTITLE14=Беловежская Пуща
TTITLE15=Белоруссия
EXTD=
EXTT0=
EXTT1=
EXTT2=
EXTT3=
EXTT4=
EXTT5=
EXTT6=
EXTT7=
EXTT8=
EXTT9=
EXTT10=
EXTT11=
EXTT12=
EXTT13=
EXTT14=
EXTT15=
PLAYORDER=
